<svg xmlns="http://www.w3.org/2000/svg" viewBox="0 0 512 512" width="512" height="512">
  <defs>
    <radialGradient id="bg" cx="50%" cy="50%" r="50%">
      <stop offset="0%" stop-color="#1e2d45"/>
      <stop offset="100%" stop-color="#131c2b"/>
    </radialGradient>
    <radialGradient id="glow" cx="50%" cy="40%" r="55%">
      <stop offset="0%" stop-color="#C9A227" stop-opacity="0.12"/>
      <stop offset="100%" stop-color="#C9A227" stop-opacity="0"/>
    </radialGradient>
  </defs>

  <circle cx="256" cy="256" r="256" fill="#131c2b"/>
  <ellipse cx="256" cy="220" rx="230" ry="230" fill="url(#glow)"/>
  <circle cx="256" cy="256" r="234" fill="none" stroke="#C9A227" stroke-width="18"/>
  <circle cx="256" cy="256" r="216" fill="none" stroke="#C9A227" stroke-width="3" opacity="0.35"/>
  <ellipse cx="256" cy="370" rx="168" ry="28" fill="#1a2738"/>
  <ellipse cx="256" cy="365" rx="168" ry="24" fill="#223248"/>
  <ellipse cx="256" cy="352" rx="148" ry="19" fill="none" stroke="#2e4a6a" stroke-width="4"/>
  <ellipse cx="256" cy="342" rx="124" ry="15" fill="none" stroke="#2e4a6a" stroke-width="3.5"/>
  <ellipse cx="256" cy="333" rx="98" ry="11" fill="none" stroke="#2e4a6a" stroke-width="3"/>
  <path d="M90 362 Q88 335 256 326 Q424 335 422 362" fill="#223248" stroke="#2e4a6a" stroke-width="3.5"/>
  <ellipse cx="256" cy="325" rx="88" ry="11" fill="#131c2b"/>
  <text x="256" y="342" text-anchor="middle" dominant-baseline="auto" font-family="Georgia, 'Times New Roman', serif" font-size="230" font-weight="700" fill="#ffffff" stroke="#C9A227" stroke-width="8" stroke-linejoin="round" paint-order="stroke fill">B</text>
  <path d="M58 195 A210 210 0 0 1 454 195" fill="none" stroke="#E8C44A" stroke-width="6" stroke-linecap="round" opacity="0.5"/>
</svg>